<?xml version="1.0" encoding="UTF-8" standalone="no"?>
<svg
   xmlns:dc="http://purl.org/dc/elements/1.1/"
   xmlns:cc="http://creativecommons.org/ns#"
   xmlns:rdf="http://www.w3.org/1999/02/22-rdf-syntax-ns#"
   xmlns:svg="http://www.w3.org/2000/svg"
   xmlns="http://www.w3.org/2000/svg"
   xmlns:sodipodi="http://sodipodi.sourceforge.net/DTD/sodipodi-0.dtd"
   xmlns:inkscape="http://www.inkscape.org/namespaces/inkscape"
   aria-hidden="true"
   focusable="false"
   data-prefix="fas"
   data-icon="cart-plus"
   class="svg-inline--fa fa-cart-plus fa-w-18"
   role="img"
   viewBox="0 0 576 512"
   version="1.1"
   id="svg22"
   sodipodi:docname="cart-minus-solid.svg"
   inkscape:version="1.0.2-2 (e86c870879, 2021-01-15)">
  <metadata
     id="metadata28">
    <rdf:RDF>
      <cc:Work
         rdf:about="">
        <dc:format>image/svg+xml</dc:format>
        <dc:type
           rdf:resource="http://purl.org/dc/dcmitype/StillImage" />
        <dc:title />
      </cc:Work>
    </rdf:RDF>
  </metadata>
  <defs
     id="defs26">
    <inkscape:path-effect
       effect="skeletal"
       id="path-effect919"
       is_visible="true"
       lpeversion="1"
       pattern="M 0,5 C 0,2.24 2.24,0 5,0 7.76,0 10,2.24 10,5 10,7.76 7.76,10 5,10 2.24,10 0,7.76 0,5 Z"
       copytype="single_stretched"
       prop_scale="1"
       scale_y_rel="false"
       spacing="0"
       normal_offset="0"
       tang_offset="0"
       prop_units="false"
       vertical_pattern="false"
       hide_knot="false"
       fuse_tolerance="0" />
    <inkscape:path-effect
       effect="skeletal"
       id="path-effect915"
       is_visible="true"
       lpeversion="1"
       pattern="M 0,5 C 0,2.24 2.24,0 5,0 7.76,0 10,2.24 10,5 10,7.76 7.76,10 5,10 2.24,10 0,7.76 0,5 Z"
       copytype="single_stretched"
       prop_scale="1"
       scale_y_rel="false"
       spacing="0"
       normal_offset="0"
       tang_offset="0"
       prop_units="false"
       vertical_pattern="false"
       hide_knot="false"
       fuse_tolerance="0" />
    <inkscape:path-effect
       effect="skeletal"
       id="path-effect911"
       is_visible="true"
       lpeversion="1"
       pattern="M 0,5 C 0,2.24 2.24,0 5,0 7.76,0 10,2.24 10,5 10,7.76 7.76,10 5,10 2.24,10 0,7.76 0,5 Z"
       copytype="single_stretched"
       prop_scale="1"
       scale_y_rel="false"
       spacing="0"
       normal_offset="0"
       tang_offset="0"
       prop_units="false"
       vertical_pattern="false"
       hide_knot="false"
       fuse_tolerance="0" />
    <inkscape:path-effect
       effect="skeletal"
       id="path-effect907"
       is_visible="true"
       lpeversion="1"
       pattern="M 0,5 C 0,2.24 2.24,0 5,0 7.76,0 10,2.24 10,5 10,7.76 7.76,10 5,10 2.24,10 0,7.76 0,5 Z"
       copytype="single_stretched"
       prop_scale="1"
       scale_y_rel="false"
       spacing="0"
       normal_offset="0"
       tang_offset="0"
       prop_units="false"
       vertical_pattern="false"
       hide_knot="false"
       fuse_tolerance="0" />
    <inkscape:path-effect
       effect="skeletal"
       id="path-effect903"
       is_visible="true"
       lpeversion="1"
       pattern="M 0,5 C 0,2.24 2.24,0 5,0 7.76,0 10,2.24 10,5 10,7.76 7.76,10 5,10 2.24,10 0,7.76 0,5 Z"
       copytype="single_stretched"
       prop_scale="1"
       scale_y_rel="false"
       spacing="0"
       normal_offset="0"
       tang_offset="0"
       prop_units="false"
       vertical_pattern="false"
       hide_knot="false"
       fuse_tolerance="0" />
    <inkscape:path-effect
       effect="skeletal"
       id="path-effect899"
       is_visible="true"
       lpeversion="1"
       pattern="M 0,5 C 0,2.24 2.24,0 5,0 7.76,0 10,2.24 10,5 10,7.76 7.76,10 5,10 2.24,10 0,7.76 0,5 Z"
       copytype="single_stretched"
       prop_scale="1"
       scale_y_rel="false"
       spacing="0"
       normal_offset="0"
       tang_offset="0"
       prop_units="false"
       vertical_pattern="false"
       hide_knot="false"
       fuse_tolerance="0" />
    <inkscape:path-effect
       effect="skeletal"
       id="path-effect895"
       is_visible="true"
       lpeversion="1"
       pattern="M 0,5 C 0,2.24 2.24,0 5,0 7.76,0 10,2.24 10,5 10,7.76 7.76,10 5,10 2.24,10 0,7.76 0,5 Z"
       copytype="single_stretched"
       prop_scale="1"
       scale_y_rel="false"
       spacing="0"
       normal_offset="0"
       tang_offset="0"
       prop_units="false"
       vertical_pattern="false"
       hide_knot="false"
       fuse_tolerance="0" />
    <inkscape:path-effect
       effect="skeletal"
       id="path-effect891"
       is_visible="true"
       lpeversion="1"
       pattern="M 0,5 C 0,2.24 2.24,0 5,0 7.76,0 10,2.24 10,5 10,7.76 7.76,10 5,10 2.24,10 0,7.76 0,5 Z"
       copytype="single_stretched"
       prop_scale="1"
       scale_y_rel="false"
       spacing="0"
       normal_offset="0"
       tang_offset="0"
       prop_units="false"
       vertical_pattern="false"
       hide_knot="false"
       fuse_tolerance="0" />
    <inkscape:path-effect
       effect="skeletal"
       id="path-effect887"
       is_visible="true"
       lpeversion="1"
       pattern="M 0,5 C 0,2.24 2.24,0 5,0 7.76,0 10,2.24 10,5 10,7.76 7.76,10 5,10 2.24,10 0,7.76 0,5 Z"
       copytype="single_stretched"
       prop_scale="1"
       scale_y_rel="false"
       spacing="0"
       normal_offset="0"
       tang_offset="0"
       prop_units="false"
       vertical_pattern="false"
       hide_knot="false"
       fuse_tolerance="0" />
    <inkscape:path-effect
       effect="skeletal"
       id="path-effect883"
       is_visible="true"
       lpeversion="1"
       pattern="M 0,5 C 0,2.24 2.24,0 5,0 7.76,0 10,2.24 10,5 10,7.76 7.76,10 5,10 2.24,10 0,7.76 0,5 Z"
       copytype="single_stretched"
       prop_scale="1"
       scale_y_rel="false"
       spacing="0"
       normal_offset="0"
       tang_offset="0"
       prop_units="false"
       vertical_pattern="false"
       hide_knot="false"
       fuse_tolerance="0" />
    <inkscape:path-effect
       effect="skeletal"
       id="path-effect879"
       is_visible="true"
       lpeversion="1"
       pattern="M 0,5 C 0,2.24 2.24,0 5,0 7.76,0 10,2.24 10,5 10,7.76 7.76,10 5,10 2.24,10 0,7.76 0,5 Z"
       copytype="single_stretched"
       prop_scale="1"
       scale_y_rel="false"
       spacing="0"
       normal_offset="0"
       tang_offset="0"
       prop_units="false"
       vertical_pattern="false"
       hide_knot="false"
       fuse_tolerance="0" />
    <inkscape:path-effect
       effect="skeletal"
       id="path-effect875"
       is_visible="true"
       lpeversion="1"
       pattern="M 0,5 C 0,2.24 2.24,0 5,0 7.76,0 10,2.24 10,5 10,7.76 7.76,10 5,10 2.24,10 0,7.76 0,5 Z"
       copytype="single_stretched"
       prop_scale="1"
       scale_y_rel="false"
       spacing="0"
       normal_offset="0"
       tang_offset="0"
       prop_units="false"
       vertical_pattern="false"
       hide_knot="false"
       fuse_tolerance="0" />
    <inkscape:path-effect
       effect="skeletal"
       id="path-effect871"
       is_visible="true"
       lpeversion="1"
       pattern="M 0,5 C 0,2.24 2.24,0 5,0 7.76,0 10,2.24 10,5 10,7.76 7.76,10 5,10 2.24,10 0,7.76 0,5 Z"
       copytype="single_stretched"
       prop_scale="1"
       scale_y_rel="false"
       spacing="0"
       normal_offset="0"
       tang_offset="0"
       prop_units="false"
       vertical_pattern="false"
       hide_knot="false"
       fuse_tolerance="0" />
  </defs>
  <sodipodi:namedview
     pagecolor="#ffffff"
     bordercolor="#666666"
     borderopacity="1"
     objecttolerance="10"
     gridtolerance="10"
     guidetolerance="10"
     inkscape:pageopacity="0"
     inkscape:pageshadow="2"
     inkscape:window-width="1366"
     inkscape:window-height="705"
     id="namedview24"
     showgrid="false"
     inkscape:zoom="1.0058594"
     inkscape:cx="288"
     inkscape:cy="256"
     inkscape:window-x="-8"
     inkscape:window-y="-8"
     inkscape:window-maximized="1"
     inkscape:current-layer="svg22"
     inkscape:document-rotation="0" />
  <path
     fill="currentColor"
     d="M504.717 320H211.572l6.545 32h268.418c15.401 0 26.816 14.301 23.403 29.319l-5.517 24.276C523.112 414.668 536 433.828 536 456c0 31.202-25.519 56.444-56.824 55.994-29.823-.429-54.35-24.631-55.155-54.447-.44-16.287 6.085-31.049 16.803-41.548H231.176C241.553 426.165 248 440.326 248 456c0 31.813-26.528 57.431-58.67 55.938-28.54-1.325-51.751-24.385-53.251-52.917-1.158-22.034 10.436-41.455 28.051-51.586L93.883 64H24C10.745 64 0 53.255 0 40V24C0 10.745 10.745 0 24 0h102.529c11.401 0 21.228 8.021 23.513 19.19L159.208 64H551.99c15.401 0 26.816 14.301 23.403 29.319l-47.273 208C525.637 312.246 515.923 320 504.717 320zM408 168h-48v-40c0-8.837-7.163-16-16-16h-16c-8.837 0-16 7.163-16 16v40h-48c-8.837 0-16 7.163-16 16v16c0 8.837 7.163 16 16 16h48v40c0 8.837 7.163 16 16 16h16c8.837 0 16-7.163 16-16v-40h48c8.837 0 16-7.163 16-16v-16c0-8.837-7.163-16-16-16z"
     id="path20"
     style="fill:#000000" />
  <rect
     style="opacity:0"
     id="rect869"
     width="74.56311"
     height="63.627174"
     x="305.21164"
     y="105.38252" />
  <rect
     style="opacity:0"
     id="rect874"
     width="52.862137"
     height="54.415535"
     x="312"
     y="216" />
  <rect
     style="opacity:0;fill:#000000"
     id="rect876"
     width="52.862122"
     height="54.415527"
     x="312"
     y="216" />
  <rect
     style="opacity:0;fill:#000000"
     id="rect878"
     width="34.796116"
     height="21.871845"
     x="297.25824"
     y="229.65437" />
  <rect
     style="opacity:0;fill:#0000ff;fill-opacity:1"
     id="rect886"
     width="70.757278"
     height="44.722332"
     x="312"
     y="123.27767" />
  <rect
     style="opacity:0;fill:#0000ff;fill-opacity:1"
     id="rect888"
     width="116.31844"
     height="13.918447"
     x="338.01941"
     y="50.702911" />
  <rect
     style="opacity:0;fill:#0000ff;fill-opacity:1"
     id="rect890"
     width="185.91068"
     height="188.8932"
     x="352.93204"
     y="22.86602" />
  <rect
     style="opacity:0;fill:#0000ff;fill-opacity:1"
     id="rect892"
     width="0"
     height="152.10875"
     x="389.71649"
     y="65.615532" />
  <path
     style="fill:#000000;stroke:#000000;stroke-width:1px;stroke-linecap:butt;stroke-linejoin:miter;stroke-opacity:1;fill-opacity:1"
     d="m 312,168 h 48 l 22.75726,-44.72233 H 312 Z"
     id="path924" />
  <path
     style="fill:none;stroke:#000000;stroke-width:1px;stroke-linecap:butt;stroke-linejoin:miter;stroke-opacity:1"
     d="M 655.16117,85.499029 Z"
     id="path926" />
  <path
     style="fill:#000000;stroke:#000000;stroke-width:1px;stroke-linecap:butt;stroke-linejoin:miter;stroke-opacity:1;fill-opacity:1"
     d="M 382.75726,123.27767 H 312 l -6.78836,-17.89515 h 74.56311 z"
     id="path928" />
  <path
     style="fill:none;stroke:#000000;stroke-width:1px;stroke-linecap:butt;stroke-linejoin:miter;stroke-opacity:1"
     d="M 684.98641,158.07379 Z"
     id="path930" />
  <path
     style="fill:#000000;stroke:#000000;stroke-width:1px;stroke-linecap:butt;stroke-linejoin:miter;stroke-opacity:1;fill-opacity:1"
     d="m 312,216 h 48 l 4.86212,54.41553 H 312 Z"
     id="path932" />
  <path
     style="fill:none;stroke:#000000;stroke-width:1px;stroke-linecap:butt;stroke-linejoin:miter;stroke-opacity:1"
     d="M 364.86212,270.41553 297.25824,251.52621 312,270.41553 Z"
     id="path934" />
  <path
     style="fill:none;stroke:#000000;stroke-width:1px;stroke-linecap:butt;stroke-linejoin:miter;stroke-opacity:1"
     d="m 364.86212,270.41553 c 0,0 0,0 0,0 z"
     id="path936" />
  <path
     style="fill:#000000;stroke:#000000;stroke-width:1px;stroke-linecap:butt;stroke-linejoin:miter;stroke-opacity:1;fill-opacity:1"
     d="m 297.25824,251.52621 67.60388,18.88932 -41.75532,20.87767 -25.84856,-39.76699 v 0 0"
     id="path938" />
  <path
     style="fill:none;stroke:#000000;stroke-width:1px;stroke-linecap:butt;stroke-linejoin:miter;stroke-opacity:1"
     d="M 702.88155,91.464078 Z"
     id="path940" />
  <path
     style="fill:none;stroke:#000000;stroke-width:1px;stroke-linecap:butt;stroke-linejoin:miter;stroke-opacity:1"
     d="m 309.18834,143.16116 c 1.98835,-3.9767 0,0 0,0 z"
     id="path32" />
  <rect
     style="opacity:0;fill:#000000"
     id="rect34"
     width="3.1835939e-06"
     height="1.8139649e-06"
     x="252.52037"
     y="144.15533" />
  <rect
     style="opacity:0;fill:#000000"
     id="rect36"
     width="59.47963"
     height="20.877665"
     x="252.52037"
     y="123.27767" />
  <rect
     style="opacity:0;fill:#000000;fill-opacity:1"
     id="rect38"
     width="91.464096"
     height="12.924268"
     x="252.52037"
     y="143.16116" />
  <path
     style="fill:none;stroke:#000000;stroke-width:1px;stroke-linecap:butt;stroke-linejoin:miter;stroke-opacity:1"
     d="m 290.29902,146.14369 c 24.95703,-2.59309 49.47535,-8.94758 74.56311,-8.94758"
     id="path863" />
  <path
     style="fill:#000000;stroke:none;stroke-width:1px;stroke-linecap:butt;stroke-linejoin:miter;stroke-opacity:1"
     d="m 290.29902,146.14369 c 0.2861,-0.6364 2.87844,0.005 7.30206,-0.88019 0,0 0,0 0,0 1.9396,-0.39892 4.24123,-1.14345 7.22686,-1.80572 2.80576,-0.5607 5.38759,-0.47107 8.17105,-0.36519 2.25517,0.0192 4.60903,0.11992 6.23843,-0.49628 3.58758,-1.10792 7.68704,-2.32839 10.9476,-4.16798 3.72836,-0.84374 4.8361,-0.52176 2.82733,-0.38282 0,0 -2e-5,0 -2e-5,0 8.9761,-2.56755 19.74213,-4.46973 31.23067,-3.73676 3.22439,0.15231 7.26362,0.31414 11.60168,1.73751 2.05091,0.64077 4.22645,1.92885 6.14564,4.04293 1.72154,2.20366 2.62251,4.65996 2.76756,7.04968 0.0202,0.33329 0.0257,0.66465 0.0168,0.99317 -0.0112,0.0445 0.0595,0.47773 0.0913,1.29784 0.0223,0.34458 0.0336,0.81245 0.0115,1.40207 0,0 3e-5,-2e-5 3e-5,-2e-5 0.61423,-0.43357 0.15039,0.88108 -1.56976,3.81546 0,0 -7e-5,1.3e-4 -7e-5,1.3e-4 -1.89988,1.73046 -3.84918,2.67476 -5.54162,3.05052 0,0 -1e-5,0 -1e-5,0 -2.18202,0.58565 -4.24037,0.80363 -6.09173,0.84422 -4.79954,0.13805 -9.35356,-0.44101 -13.47298,-1.14503 -4.56668,-0.76279 -8.97786,-1.75235 -13.07908,-2.76096 0,0 -1e-5,0 -1e-5,0 -3.1952,-0.78295 -6.1512,-1.61042 -8.9456,-2.26146 0,0 0,0 0,0 0.0615,-0.13784 -0.54278,0.0155 -1.67866,0.0431 -0.99508,0.19437 -2.63555,0.20261 -4.74271,-0.37126 -6.49837,-2.47048 -13.32173,-3.57771 -18.77304,-4.21209 -12.63013,-1.43812 -20.45055,-0.52739 -20.68325,-1.69089 -0.2327,-1.1635 7.45341,-4.35325 20.97533,-4.57161 5.86279,-0.10905 13.32037,0.3616 21.09072,2.64533 -0.23984,0.0482 0.15983,-0.16945 1.1727,-0.20502 0.8335,-0.19655 2.28241,-0.38419 4.336,-0.12312 0,0 1e-5,0 1e-5,0 3.24281,0.552 6.02541,1.18012 9.22645,1.80899 0,0 0,0 0,0 4.03639,0.79244 8.30055,1.58404 12.55297,2.16431 3.92458,0.52091 7.89644,0.97091 11.63177,0.77363 1.43982,-0.0888 2.73007,-0.20553 3.76688,-0.53061 0,0 0,-1e-5 0,-1e-5 0.76349,-0.31925 1.26519,-0.42975 1.18994,-0.52398 0,0 -6e-5,1.2e-4 -6e-5,1.2e-4 -1.46659,2.68105 -1.97857,3.56878 -1.34773,2.77654 0,0 3e-5,-4e-5 3e-5,-4e-5 0.007,-0.0207 -0.005,-0.16475 -0.0131,-0.43185 -0.0192,-0.20747 -0.0949,-0.80592 -0.10605,-1.79433 -0.009,-0.0972 -0.0182,-0.19304 -0.0281,-0.28658 -0.071,-0.6715 -0.17197,-1.21491 -0.39648,-1.32188 -0.1602,-0.35428 -0.90822,-0.6762 -1.85372,-1.10589 -2.26436,-0.93454 -5.48918,-0.99125 -9.00363,-1.35752 -9.97218,-0.91725 -19.8908,0.41865 -28.4198,2.2283 0,0 -3e-5,0 -3e-5,0 -3.18895,0.4492 -3.8224,-0.12335 -1.14936,-0.38282 -4.53826,2.05753 -9.15956,3.05887 -12.9126,3.78542 -3.35067,0.62533 -6.32748,0.25421 -8.59488,-0.1341 -2.9361,-0.41052 -4.80756,-0.84926 -6.82088,-0.72737 -3.19106,0.18219 -4.97672,0.4574 -7.70421,0.35474 0,0 0,0 0,0 -5.67996,-0.17359 -7.80202,-2.57372 -7.59211,-3.04065 z"
     id="path873"
     inkscape:path-effect="#path-effect875"
     inkscape:original-d="m 290.29902,146.14369 c 4.85656,2.18331 10.03146,0.6973 14.91262,0 4.75388,-0.67913 10.26448,1.16203 14.91262,0 4.20734,-1.05184 8.11174,-2.06752 11.9301,-3.9767 0.59281,-0.29641 1.34536,0.16075 1.98835,0 9.72681,-2.43171 19.61112,-3.76823 29.82524,-2.98253 6.26466,0.4819 15.9068,0.66228 15.9068,8.94758 0,0.40936 0.26316,2.71936 0,2.98252 -6.44698,6.44698 -34.89642,-1.41191 -42.74952,-2.98252 -1.82789,-0.36558 -4.20332,0.58724 -5.96504,0 -11.72395,-3.90799 -27.84067,-4.57246 -40.76117,-1.98835 z" />
  <path
     style="fill:#000000;stroke:none;stroke-width:1px;stroke-linecap:butt;stroke-linejoin:miter;stroke-opacity:1"
     d="m 349.94951,102.4 c 0.52526,0.57301 -3.14295,5.10385 -10.48328,12.55294 0,0 -10e-6,1e-5 -10e-6,1e-5 -1.89472,1.92897 -3.93932,4.19885 -6.31263,6.69268 -2.34237,2.46538 -5.13768,5.31302 -8.20115,8.04411 -2.62267,2.34851 -5.73232,4.8719 -9.35974,6.97833 -2.72633,1.65195 -6.22576,3.1434 -10.38106,3.32384 -0.0309,-0.61004 -0.0534,-1.23311 -0.0676,-1.86924 0.52509,-1.45028 1.2224,-2.16245 1.97697,-2.10427 0.90554,0.65796 0.0649,2.33853 -2.67441,4.84765 -3.0502,0.58613 -4.32476,0.14696 -3.43273,0.19552 0,0 0,0 0,0 -0.51868,-0.13193 -1.88841,1.66229 -5.44358,3.00072 -1.19652,0.35668 -2.00476,0.46493 -2.36744,0.4952 0,0 -1e-5,0 -1e-5,0 -0.60064,0.12785 -0.91881,0.14979 -0.88515,0.19726 0.32754,0.11909 0.69489,-0.45777 1.43321,-1.76022 -0.1022,-1.41885 0.16877,-1.65275 0.1889,-1.02364 0.87621,1.39592 1.72818,2.77239 2.59903,4.00891 0.19951,0.27102 0.28713,0.40993 0.29022,0.38863 -1.06765,0.73616 -2.41477,1.2579 -4.03277,1.55127 -0.22413,0.25725 -0.43917,0.51139 -0.66973,0.7182 -0.27274,0.24465 -0.57522,0.46526 -0.87526,0.67953 -0.56738,0.4052 -1.14867,0.76924 -1.73756,1.09106 0,0 -10e-5,5e-5 -10e-5,5e-5 0.0207,0.0598 0.003,0.0329 -0.045,-0.0852 l 0,0 c 0,0 0,0 0,0 -0.0396,-0.0895 -0.0874,-0.1921 -0.14202,-0.30869 1.30257,-0.65838 2.6032,-1.32385 3.90212,-1.99656 0,0 8e-5,-5e-5 8e-5,-5e-5 0.0961,-0.061 0.19214,-0.12198 0.28835,-0.18307 0.0367,-0.0233 0.0718,-0.0465 0.1102,-0.0702 -0.68848,0.25653 0.917,-0.32224 0.2245,-0.0726 -0.0254,0.008 0.68801,-0.22173 0.66261,-0.21355 0.96039,-0.30998 1.92191,-0.62244 2.88483,-0.93753 0,0 9e-5,-3e-5 9e-5,-3e-5 0.27378,0.5309 0.55049,1.06385 0.83068,1.60213 0.70142,1.84295 0.85354,2.91931 0.77949,3.08048 0.44802,0.034 -0.19785,-0.52857 -1.73953,-2.1209 0.72707,0.647 2.52822,0.1141 4.69491,-0.40801 2.62221,-0.88983 5.16242,-2.51816 7.71571,-4.49888 2.44616,-1.95359 4.69757,-4.1503 6.45574,-6.62107 0.71057,-1.01256 1.31756,-1.97498 1.6945,-2.90157 0.25937,-0.76482 0.47386,-1.27064 0.39576,-1.45386 0,0 0,0 0,0 0.0987,-1.4125 0.23545,-2.03388 0.23347,-1.86131 0,0 -2e-5,1e-5 -2e-5,1e-5 -0.4363,0.19233 0.0163,1.23739 1.18626,3.3333 0,0 4e-5,9e-5 4e-5,9e-5 1.33988,0.90621 1.68978,1.24365 1.1739,0.8405 -0.27033,-0.0868 -0.65265,-0.16522 -1.13927,-0.26982 -1.29862,-0.26805 -2.67128,-0.47011 -4.11808,-0.66126 -1.42749,-0.185 -2.82945,-0.34198 -4.19734,-0.4317 0,0 -1e-5,0 -1e-5,0 -0.5036,-0.0308 -0.92986,-0.0565 -1.27566,-0.0506 0,0 -3e-5,1e-5 -3e-5,1e-5 -0.60015,0.15636 -0.30058,0.0123 0.94225,-0.26632 0,0 5e-5,-1e-5 5e-5,-1e-5 0.53337,-0.37228 0.69969,-0.2924 0.009,0.19426 -0.50573,0.50558 -1.00256,1.11113 -1.51592,1.78683 -0.4976,0.67334 -0.92865,1.29457 -1.23964,1.88035 0,0 0,0 0,0 -0.19749,0.83659 -0.33638,0.57307 -0.0701,-0.51766 0.76657,1.82973 -0.20819,0.84679 -0.98631,-1.02307 -1.84818,-0.77086 -2.87125,-1.76367 -1.02307,-0.99281 1.00225,-0.004 2.00488,-0.11561 2.96584,-0.34044 0.97031,-0.22702 1.89207,-0.56794 2.72462,-1.02439 1.90026,-0.95659 3.82381,-2.6348 6.03079,-4.42565 -0.39398,0.37061 -0.47773,0.42766 -0.22566,0.19353 l 10e-6,-1e-5 c 0.14298,-0.15535 0.29585,-0.32723 0.46055,-0.51332 0.45941,-0.51979 0.91184,-1.0453 1.35743,-1.57595 l 0,0 10e-6,-1e-5 0,0 c 0.44061,-0.52813 0.83093,-0.99443 1.14739,-1.42159 l 0,0 10e-6,-1e-5 0,0 c 0.12366,-0.18319 0.1481,-0.19567 0.0575,-0.0603 3e-5,6e-5 7e-5,1.2e-4 7e-5,1.2e-4 0.58704,0.93893 1.05436,2.29604 1.38704,4.06643 0,0 1e-5,-1e-5 1e-5,-1e-5 0.0288,-0.0153 0.053,-0.042 0.0497,-0.0386 -0.40258,0.41328 -1.82243,2.45003 -3.57056,4.4722 -0.442,0.27083 -0.8271,0.5833 -1.00604,0.88532 0,0 0,10e-6 0,10e-6 -0.048,0.2263 -0.0162,-0.008 0.20475,-0.68189 0,0 9e-5,-9e-5 9e-5,-9e-5 1.25444,-1.17216 -0.31374,-2.86668 -4.6244,-5.39428 -0.55283,0.19621 -0.4677,-0.0304 0.33102,-0.28015 0.84256,-0.43899 1.72553,-1.09772 2.68557,-1.85311 2.30213,-1.8473 4.38124,-3.96221 6.22072,-6.23393 0.82583,-1.03456 1.55128,-2.00956 2.10221,-2.975 0.39201,-0.83715 0.70589,-1.2493 0.63037,-1.28828 -0.0708,0.0521 0.008,0.39231 0.16152,1.06145 0,0 1e-5,2e-5 1e-5,2e-5 0.28241,0.72899 0.72545,1.26978 1.3719,1.68121 0,0 2e-5,2e-5 2e-5,2e-5 1.22149,0.209 1.38914,0.61235 0.32473,0.40961 0,0 -2e-5,0 -2e-5,0 -3.35664,0.57091 -6.52853,2.57878 -8.80701,5.14217 -2.32333,2.69941 -3.7991,6.06526 -3.83156,9.22823 0,0 0,4e-5 0,4e-5 -0.0943,1.26649 -0.23655,1.83369 -0.25302,1.7414 0,0 1e-5,-1e-5 1e-5,-1e-5 0.35539,-0.11669 -0.045,-0.95286 -0.99889,-2.67317 -0.34039,-0.18588 -0.41917,-0.18986 -0.70496,-0.1623 0.22666,0.0827 0.75922,-0.3257 1.57072,-0.83014 1.5153,-1.11845 2.84468,-2.58228 3.9863,-4.16198 0.59972,-0.80504 0.83083,-1.05073 0.66677,-0.76419 0.12083,-0.11176 0.232,-0.21361 0.3325,-0.30695 0.29706,-0.27837 0.55807,-0.52626 0.77535,-0.75771 0.24659,-0.33515 0.32816,-0.33202 0.16504,-0.0844 0,0 -2e-5,0 -2e-5,0 -0.19869,-0.0579 -0.22854,0.62822 -0.16608,2.06278 0,0 9e-5,1.7e-4 9e-5,1.7e-4 0.96066,1.84014 1.85658,2.70946 2.77082,2.62313 -0.39792,-0.1453 -1.06977,-0.0543 -1.88338,0.0738 -0.98782,0.19153 -2.02397,0.58485 -3.07638,1.05263 -2.46893,1.11379 -4.7361,2.63978 -6.74761,4.27849 -0.9701,0.79762 -1.84486,1.59093 -2.61422,2.4209 -0.63731,0.71318 -1.15538,1.29804 -1.4597,1.86966 -0.0605,0.56086 -0.30337,0.41755 -0.28557,-0.20932 -0.17387,-0.40529 -0.38929,-0.6697 -0.68427,-0.84155 -0.29167,-0.10605 -0.34708,-0.14957 -0.23647,-0.077 2.22204,0.37913 4.79089,0.37726 6.98142,0.40213 1.51266,0.0123 2.86519,-0.005 4.17465,-0.0806 1.17498,-0.0859 2.04475,-0.11618 2.83355,-0.33006 1.25769,-0.35439 2.23069,-0.70115 3.05844,-1.21078 0.44268,-0.24099 0.95268,-0.72062 1.57585,-1.14537 0.86499,-0.56429 1.74055,-0.66401 2.43533,-0.55815 2.83878,0.49126 3.71996,1.53187 3.61423,1.88329 -0.10573,0.35142 -1.6245,-0.0393 -3.70046,0.25362 -0.31363,0.0643 -0.64018,0.19536 -0.72052,0.40596 -0.32671,0.35468 -0.69119,0.89262 -1.3751,1.52375 -1.01922,0.91827 -2.24183,1.66339 -3.64159,2.27462 -1.197,0.50676 -2.3782,0.77321 -3.55521,0.98901 -1.41776,0.27456 -2.88557,0.48042 -4.46346,0.64891 -2.19595,0.24765 -4.94517,0.52726 -7.81695,0.34194 -0.55947,-0.003 -1.29688,-0.20237 -2.16483,-0.68075 -0.72974,-0.45303 -1.29275,-1.1431 -1.63081,-2.04645 -0.39197,-1.91621 -0.13263,-3.34886 0.40125,-4.0514 0.58532,-1.2726 1.31286,-2.34618 2.05782,-3.26336 0.91724,-1.15934 1.92597,-2.23909 3.00292,-3.26057 2.19637,-2.10084 4.80975,-4.12327 7.86133,-5.75972 1.30782,-0.70805 2.79004,-1.35697 4.45331,-1.8191 1.34085,-0.4031 2.97058,-0.60552 4.82171,-0.37632 1.11583,-0.0527 2.21929,0.93437 3.2268,2.97392 0,0 9e-5,1.8e-4 9e-5,1.8e-4 0.118,1.67096 -0.009,2.60239 -0.31058,2.76526 0,0 -2e-5,1e-5 -2e-5,1e-5 -0.50969,0.99081 -0.96987,1.61105 -1.2691,1.89788 -0.3755,0.44342 -0.74311,0.8394 -1.09164,1.19805 -0.12645,0.1306 -0.2446,0.25105 -0.35306,0.36238 -0.26611,0.38596 -0.15526,0.22654 0.36528,-0.4598 -1.38283,2.2071 -3.15989,4.34335 -5.38284,6.18031 -1.09106,0.99962 -2.70443,1.98311 -4.90874,2.55329 -2.41247,0.45325 -4.8227,-0.20752 -6.7282,-1.95792 -1.41311,-2.17953 -1.81187,-3.75512 -1.35039,-4.51591 0,0 2e-5,-3e-5 2e-5,-3e-5 0.10119,-0.80785 0.19187,-0.92986 0.0985,-0.39252 0,0 0,2e-5 0,2e-5 -0.0325,-5.36529 1.89986,-10.67376 5.42786,-14.91613 3.33006,-4.09037 8.10464,-7.26316 13.74715,-8.49211 0,0 10e-6,0 10e-6,0 1.03446,-0.58168 3.25781,-0.59872 6.33727,0.70291 0,0 4e-5,3e-5 4e-5,3e-5 1.19519,0.74755 2.06698,1.81603 2.56351,3.1541 0,0 10e-6,4e-5 10e-6,4e-5 0.39734,1.36224 0.47919,2.46072 0.31246,3.24385 -0.35357,2.07976 -1.01833,3.6358 -1.68258,4.68078 -0.87342,1.57287 -1.85062,2.98035 -2.85179,4.25949 -2.18044,2.81911 -4.7,5.47034 -7.55246,7.8382 -1.16654,0.98362 -2.51831,1.9856 -4.10464,2.88792 -0.88246,0.67435 -2.55879,1.33102 -5.04232,1.53316 -4.66541,-2.52754 -6.31368,-4.71064 -4.99228,-6.23187 0,0 1e-4,-1.1e-4 1e-4,-1.1e-4 0.36329,-1.41699 0.77995,-2.32694 1.13933,-2.74068 0,0 1e-5,-2e-5 1e-5,-2e-5 1.15198,-1.78935 2.66421,-3.20243 4.39228,-4.17165 3.62194,-1.05001 8.61032,-1.4462 14.3246,0.4955 0.0471,0.016 0.0667,0.0621 0.0819,0.0969 0,0 0,0 0,0 0.30166,1.88538 0.70883,3.34739 1.23672,4.38975 0,0 3e-5,6e-5 3e-5,6e-5 -0.31269,0.52368 -0.55181,0.86767 -0.69464,1.04438 l 0,0 -10e-6,10e-6 0,0 c -0.5215,0.70409 -1.02706,1.32423 -1.49169,1.8812 l 0,0 -1e-5,1e-5 0,0 c -0.49577,0.59775 -1.00081,1.191 -1.51528,1.77916 -0.18013,0.2062 -0.37401,0.42581 -0.58371,0.65665 l 0,0 c 0.0802,-0.046 -0.1628,0.21004 -0.75261,0.74391 -2.11125,1.80766 -4.58683,3.86963 -7.71583,5.59055 -1.63204,0.8556 -3.34846,1.49517 -5.10804,1.91825 -1.74277,0.41904 -3.51689,0.62306 -5.28012,0.61918 -0.32626,0.59199 -2.53552,0.23938 -6.04204,-1.9389 -2.1855,-3.52215 -2.52341,-5.71638 -1.9324,-6.04204 0.27661,-2.4792 0.847,-3.89061 1.3036,-4.2733 0,0 10e-6,-1e-5 10e-6,-1e-5 0.64645,-1.16291 1.34526,-2.18889 2.04408,-3.09777 0.70674,-0.93785 1.50626,-1.88208 2.42161,-2.80112 0.3679,-0.55779 1.44144,-1.45361 3.34382,-2.3908 0,0 8e-5,-2e-5 8e-5,-2e-5 1.80099,-0.50149 2.7229,-0.5916 2.72273,-0.43713 0,0 0,1e-5 0,1e-5 0.7488,0.003 1.41617,0.0419 2.00104,0.0885 0,0 2e-5,0 2e-5,0 1.65997,0.12555 3.26941,0.31797 4.82307,0.538 1.56571,0.21814 3.17511,0.47808 4.82275,0.83363 0.58439,0.12209 1.26737,0.28618 2.03791,0.52574 0.0622,-0.22188 1.04769,0.25502 2.81511,1.58877 0,0 6e-5,1e-4 6e-5,1e-4 1.63088,2.55682 2.07974,4.34195 1.53774,5.17602 0,0 -2e-5,4e-5 -2e-5,4e-5 -0.11748,0.8694 -0.21899,0.98045 -0.11803,0.27263 0,0 0,2e-5 0,2e-5 -0.0784,2.17172 -0.58264,3.96479 -1.25787,5.33995 -0.81179,1.79526 -1.7926,3.35714 -2.81853,4.7137 -2.48033,3.31184 -5.3993,6.08714 -8.46151,8.38922 -3.11338,2.39727 -6.63442,4.44282 -10.57803,5.74346 -3.22854,1.27748 -7.40569,1.51354 -11.60122,-0.30274 -2.46523,-2.05448 -3.4022,-3.76853 -3.08517,-4.75194 -0.23383,-1.03837 -0.0419,-1.0155 0.13677,-0.25354 -0.2661,-0.5543 -0.53088,-1.10811 -0.79444,-1.66396 0,0 7e-5,-5e-5 7e-5,-5e-5 0.84904,-0.54542 1.69706,-1.08818 2.54371,-1.62809 0.0148,-0.009 0.56903,-0.36258 0.58384,-0.37202 0.0117,-0.007 0.18906,-0.11123 0.20078,-0.11813 0.0353,-0.0196 0.0779,-0.0329 0.11903,-0.046 0.10786,-0.0345 0.21583,-0.0691 0.32377,-0.10367 0,0 8e-5,-3e-5 8e-5,-3e-5 1.34047,-0.5802 2.68275,-1.15326 4.02661,-1.71909 0.0705,0.16383 0.1452,0.34229 0.22271,0.53597 0,0 1e-5,1e-5 1e-5,1e-5 l 0,0 c 0.0723,0.17178 0.17096,0.43564 0.28604,0.79385 0,0 -9e-5,7e-5 -9e-5,7e-5 -0.55558,0.42706 -1.1052,0.89729 -1.6552,1.41141 -0.29084,0.27185 -0.57538,0.5611 -0.88596,0.85008 -0.26258,0.24432 -0.53805,0.45836 -0.80168,0.68613 -1.72566,0.2129 -3.15989,0.6302 -4.31412,1.26373 -0.41012,-0.51031 -0.67753,-0.90594 -0.83402,-1.16375 -1.00066,-1.54378 -1.87574,-3.07218 -2.68428,-4.48417 -0.79541,-0.6881 -1.33126,-2.57882 -1.03389,-5.47068 1.00695,-2.32967 2.32991,-3.60305 3.63678,-3.87006 1.21672,-0.41883 2.16981,-0.57868 2.81639,-0.62249 0,0 2e-5,0 2e-5,0 0.74242,-0.12163 1.05131,-0.0887 0.90361,-0.0816 0.7623,-0.10073 2.71339,-1.97405 6.48652,-2.96434 0,0 2e-5,0 2e-5,0 2.82972,-0.34268 3.74665,0.23899 2.53229,0.19552 -2.43973,2.40917 -3.28204,3.67366 -2.43862,4.02343 0.67542,-0.33133 1.2161,-1.42224 1.74118,-3.26839 1.32045,-0.63613 2.62345,-1.2592 3.90908,-1.86924 2.13197,0.17932 4.61763,-0.83249 7.02783,-1.95428 3.10367,-1.52842 6.04487,-3.61857 8.68982,-5.62953 3.03439,-2.3167 6.00873,-4.87389 8.52307,-7.05377 2.73269,-2.37045 4.68255,-4.12948 7.12024,-6.0555 0,0 0,0 0,0 8.11649,-6.38066 12.85165,-9.8919 13.37691,-9.31889 z"
     id="path881"
     inkscape:path-effect="#path-effect883"
     inkscape:original-d="m 349.94951,102.4 c -3.9767,3.6453 -7.90977,7.33879 -11.9301,10.93592 -7.42124,6.64006 -21.85229,22.86602 -32.80777,22.86602 -0.66278,0 -1.32556,0 -1.98835,0 0,0.33139 0.31439,0.88938 0,0.99417 -0.94315,0.31439 -2.00765,-0.19497 -2.98252,0 -2.0636,0.41272 -4.19433,2.39229 -5.96505,2.98253 -1.60869,0.53623 -6.36256,2.5e-4 -3.9767,3.9767 6.85427,11.42377 0.70885,-0.57065 3.9767,5.96504 0.46866,0.93732 0.0569,2.51387 0.99418,2.98253 9.00397,4.50199 27.83689,-11.67097 27.83689,-19.8835 0,-0.66278 0.46866,-1.51969 0,-1.98835 -0.93971,-0.9397 -12.76643,-2.44915 -13.91845,-1.98834 -1.74344,0.69737 -5.96505,6.21551 -5.96505,7.95339 0,2.71526 0.26727,2.98253 2.98253,2.98253 6.44581,0 10.02148,-2.88328 14.91262,-6.95923 0.27251,-0.22709 4.32717,-4.88325 3.9767,-4.97087 -3.04651,-0.76163 -6.40084,0.53307 -8.94758,1.98835 -2.52065,1.44037 -3.68294,3.9767 -2.98252,3.9767 5.76897,0 24.50525,-21.20552 12.92427,-18.88932 -8.86315,1.77263 -15.90679,10.10997 -15.90679,18.88932 0,0.66278 -0.46866,1.51969 0,1.98835 3.58795,3.58796 9.43701,-3.71668 10.93592,-5.96505 0.073,-0.10947 3.0696,-2.80232 1.98835,-2.98252 -8.06548,-1.34425 -24.42776,14.18677 -17.89515,14.91262 2.84447,0.31605 11.91581,0.0956 14.91262,-0.99418 6.59504,-2.39819 2.91935,-4.89302 10.06076,-2.74448" />
  <path
     style="fill:#000000;stroke:none;stroke-width:1px;stroke-linecap:butt;stroke-linejoin:miter;stroke-opacity:1"
     d="m 285.62437,140.86912 c 0.51887,0.10681 0.87236,0.81126 1,2.08692 0.0981,0.98068 -0.0372,3.18027 0.49161,3.91448 0.25655,-0.002 0.0666,-0.2946 -0.6338,-1.23399 -0.75822,-0.3733 -1.15348,-0.60971 -1.16749,-0.51834 -0.004,-0.0369 0.20777,-0.15117 0.71617,-0.27819 0.2598,-0.25203 1.17629,-0.24624 2.8105,0.24231 2.94551,1.43813 4.17438,3.4254 5.00461,4.43889 l 0.006,0.001 c -0.0332,-0.0149 -0.0663,-0.03 -0.0992,-0.0452 -0.0821,-0.0398 -0.16332,-0.0803 -0.24376,-0.12082 0,0 -1e-5,0 -1e-5,0 -0.30476,-0.15355 -0.59773,-0.30874 -0.87875,-0.46442 0,0 -1e-5,0 -1e-5,0 0.22087,-0.0173 0.46276,-0.0368 0.71389,-0.0553 0.8555,-0.0642 1.75472,-0.12896 2.66718,-0.18807 2.57525,-0.16718 5.33577,-0.30262 8.21133,-0.3946 2.73094,-0.0876 5.5945,-0.14088 8.5274,-0.1465 1.48481,-0.003 2.94932,0.007 4.39207,0.0288 1.20485,0.0264 2.1038,0.14897 2.68928,0.22567 1.28448,0.13777 2.44385,0.26825 3.61643,0.37993 1.23541,0.11046 2.27283,0.21382 3.22435,0.22472 0.37672,-0.006 0.59202,0.0157 0.65222,0.0172 0,0 0,0 0,0 0.20152,-0.2486 -0.25248,0.11808 -1.43498,0.93612 0,0 -1e-5,1e-5 -1e-5,1e-5 -1.32577,3.25742 -1.74394,4.52095 -1.08569,4.00208 -0.7447,0.18164 -0.41825,-1.54086 1.13517,-4.94678 3.13294,-1.62328 4.88979,-1.86115 5.1875,-1.14776 0,0 10e-6,0 10e-6,0 0.69659,-0.17455 0.0143,0.10235 -1.97833,0.45608 0.005,0.14625 0.45455,-0.22967 1.37552,-0.77574 1.06812,-0.80728 2.41855,-1.18193 3.86816,-1.12315 -0.0876,0.0267 -0.17094,0.0441 -0.24894,0.0617 -0.16637,0.0376 -0.30954,0.0654 -0.42932,0.085 0.0469,-0.004 0.12569,-0.0254 0.23522,-0.0594 0.35712,-0.10942 0.73382,-0.23312 1.1114,-0.35753 1.24747,-0.40979 2.39337,-0.77834 3.4919,-1.10991 1.34551,-0.40656 2.59204,-0.74385 3.63705,-0.99116 0,0 0,0 0,0 0.45905,-0.1098 0.90091,-0.20064 1.27421,-0.27288 0.13837,-0.0282 0.256,-0.0432 0.35298,-0.0522 0,0 0,0 0,0 0.12568,-0.0747 0.082,0.008 -0.10519,0.19318 -0.18187,1.23228 -0.0552,1.12787 0.16669,0.85968 0.0102,-0.20434 -0.0394,-0.50563 -0.0586,-0.70756 0,0 0,0 0,0 0.0226,-0.43885 -0.0982,-0.60864 0.16569,-0.87254 0.13322,-0.13322 0.48866,-0.34749 0.84586,-0.2931 0,0 0,0 0,0 0.24754,0.012 0.5748,0.0841 0.94954,0.29839 0.60806,0.28712 1.39425,1.2093 0.46671,3.25099 -0.28947,0.28732 -0.46199,0.44092 -0.46404,0.44532 0,0 0,0 0,0 -0.13101,0.13271 -0.25705,0.25565 -0.36889,0.36762 -0.32601,0.32443 -0.67176,0.63875 -1.04839,0.96822 0,0 0,1e-5 0,1e-5 -0.86113,0.7513 -1.87365,1.53887 -3.05275,2.38634 -0.93315,0.67064 -1.98143,1.38322 -3.12221,2.10777 -0.34368,0.21903 -0.71641,0.45013 -1.1166,0.68376 -0.10816,0.0645 -0.24898,0.1422 -0.42515,0.23051 -0.18392,0.0462 -0.39113,0.10023 -0.62311,0.16115 -0.10867,0.0285 -0.22287,0.0611 -0.34305,0.0878 -0.0489,0.0588 -0.21527,0.21191 -0.45057,0.32453 -0.24835,0.27558 -0.9199,0.93629 -2.25913,1.75328 -2.62172,0.66828 -4.06172,0.68376 -4.0598,0.32691 0,0 0,-1e-5 0,-1e-5 -0.34082,0.54891 0.63596,0.1295 3.29228,-1.01858 1.3088,-3.16213 1.77513,-4.46778 1.13517,-3.9526 0.75895,-0.18654 0.48811,1.49001 -1.08569,4.99626 0,0 -1e-5,1e-5 -1e-5,1e-5 -1.58798,1.224 -2.64864,1.73356 -3.017,1.60566 0,0 0,0 0,0 -0.83291,0.19344 -1.53667,0.29014 -2.09112,0.33152 -1.49464,0.13586 -2.8959,0.14533 -4.22391,0.1154 -1.31864,-0.0252 -2.61202,-0.0885 -3.91007,-0.16662 -0.91219,-0.048 -1.54285,-0.12885 -1.8708,-0.10228 -1.43267,0.0221 -2.89324,0.0355 -4.37286,0.0383 -2.93443,0.006 -5.78277,-0.0302 -8.53457,-0.11126 -2.88651,-0.0852 -5.63738,-0.2147 -8.23463,-0.38901 -0.92139,-0.0619 -1.82013,-0.12835 -2.70977,-0.20416 -0.25576,-0.022 -0.51883,-0.0443 -0.79692,-0.0699 0,0 -1e-5,0 -1e-5,0 -0.41547,-0.15782 -0.8429,-0.31533 -1.28147,-0.47359 0,0 -2e-5,-1e-5 -2e-5,-1e-5 -0.12499,-0.0451 -0.22467,-0.0808 -0.34966,-0.12589 -0.0424,-0.0159 -0.0848,-0.0317 -0.1274,-0.0479 l 0,0 c -3.02952,-2.88133 -3.87475,-4.93852 -4.94279,-5.50423 1.15278,0.24872 1.51057,0.34214 1.25769,0.16687 -0.13082,-0.0256 -0.54806,0.0121 -1.16742,0.0311 -0.60036,0.14483 -1.60561,-0.12946 -2.82415,-0.82304 -1.31668,-1.36968 -1.68985,-2.45779 -1.5058,-3.15153 0.26883,-2.87953 1.55686,-4.58494 2.19608,-5.32589 0.74568,-0.86434 1.39791,-1.30867 1.87633,-1.21019 z"
     id="path897"
     inkscape:path-effect="#path-effect899"
     inkscape:original-d="m 285.62437,140.86912 c -0.43013,2.08958 -1.49447,4.14513 -1.2904,6.26874 0.19584,2.03792 2.18153,0.59368 2.98253,0.99418 2.28138,1.14068 3.67093,3.67093 4.97087,4.97087 0.0597,0.0597 23.49797,0 24.85437,0 1.37465,0 10.76409,1.16601 11.9301,0 0.23433,-0.23433 -0.23433,-0.75985 0,-0.99418 0.46865,-0.46865 1.39553,0.29641 1.98835,0 1.44179,-0.72089 2.07885,-1.98835 3.97669,-1.98835 0.22442,0 9.51551,-4.54462 9.94175,-4.97087 0.73141,-0.73141 -0.80004,-1.79422 -0.99416,-1.98835" />
  <path
     style="fill:#000000;stroke:none;stroke-width:1px;stroke-linecap:butt;stroke-linejoin:miter;stroke-opacity:1"
     d="m 265.44465,274.39223 c -0.13454,-0.22872 1.21371,-1.32357 3.89935,-3.26798 2.13119,-1.543 7.25531,-5.19145 12.29959,-8.03653 3.38781,-1.91181 8.06276,-4.53754 12.75285,-6.76845 0,10e-6 1e-5,0 1e-5,0 3.98563,-1.90827 8.95439,-4.09207 14.40278,-5.13936 2.77068,-0.49189 5.34926,-0.40484 7.91119,-0.36864 2.31347,-0.009 4.63456,-0.10119 6.54315,-0.83305 0.85129,-0.30185 1.70625,-0.59532 2.50265,-0.89463 1.36239,-0.51155 2.72058,-1.05952 4.02553,-1.67597 1.24794,-0.60834 2.3966,-1.16833 3.20694,-1.86206 0.27543,-0.27519 0.43519,-0.37637 0.35512,-0.34943 -0.19409,0.15241 -0.189,0.53917 -0.10097,1.29444 0.0385,-0.20438 -0.45355,-0.49502 -1.02985,-0.87392 -0.91294,-0.49967 -2.15048,-0.71806 -3.58874,-0.93157 -3.76418,-0.4955 -7.73748,-0.14288 -12.07624,0.41928 -4.24409,0.5742 -8.56959,1.4451 -12.90971,2.65855 -1.66399,0.46727 -3.30387,0.97185 -4.86554,1.57168 -1.08994,0.44561 -1.99096,0.76959 -2.52026,1.18006 0,0 -10e-6,1e-5 -10e-6,1e-5 -0.26167,0.1592 -0.59173,0.53105 -1.0627,1.01951 -0.53412,0.5987 -1.00478,1.21332 -1.36811,1.84411 -0.31829,0.63884 -0.57009,1.0791 -0.53357,1.2982 0.0826,-0.0644 -0.0264,-0.17325 -0.27031,-0.6716 0,0 0,-1e-5 0,-1e-5 3.58179,3.8501 8.61593,6.59402 14.14525,7.85466 5.43495,1.24342 11.35358,1.07756 17.19802,-0.24699 5.67612,-1.31028 11.23245,-3.73384 16.05229,-7.28734 4.44624,-3.30468 8.32996,-7.58255 10.54694,-12.58012 0.5486,-1.07848 0.7963,-3.16309 1.90062,-5.87209 0,0 1.6e-4,-2.2e-4 1.6e-4,-2.2e-4 1.39143,-1.99552 2.23368,-2.79862 2.33533,-2.52229 0,0 10e-6,3e-5 10e-6,3e-5 -0.27389,-0.48654 -0.75646,0.61045 -1.70704,3.26332 3.11246,4.27511 4.68104,5.72419 5.00695,4.20026 0.3893,0.0412 -0.31829,0.15572 -2.13563,0.18585 0,0 -2.4e-4,0 -2.4e-4,0 -6.66506,-0.76082 -13.45269,-1.1098 -19.84844,0.0296 -6.04749,1.0969 -11.99745,3.57931 -16.07686,7.82505 0.17601,-0.21183 0.1776,-0.16774 -0.0521,0.11111 -0.22182,0.30638 -0.44821,0.64505 -0.68667,1.01107 0,0 -2e-5,2e-5 -2e-5,2e-5 -0.61813,0.95508 -1.18764,1.91385 -1.6839,2.88056 -0.45673,0.98967 -0.82997,1.6376 -0.84011,1.98661 0.11188,0.17963 0.0164,-0.23763 -0.14113,-1.30971 -0.65432,-1.49013 -1.64243,-2.35429 -3.09178,-2.67751 4.00661,0.70216 8.47077,0.21219 13.30442,-0.35738 2.38927,-0.30793 4.76648,-0.7 7.11573,-1.1974 0,0 3e-5,-1e-5 3e-5,-1e-5 1.83122,-0.39586 3.54276,-0.78914 5.05909,-1.33335 0,0 3e-5,-1e-5 3e-5,-1e-5 0.30812,-0.0748 0.77251,-0.40119 1.43084,-0.83172 0.67107,-0.48954 1.26481,-0.99574 1.72769,-1.53093 0.36576,-0.6001 0.59271,-0.68985 0.35491,-0.34254 -0.24008,1.22825 0.17705,2.18441 1.34142,3.34373 -2.8736,-2.09922 -7.20523,-2.50869 -11.71495,-2.37738 -4.91803,0.2713 -9.89051,1.58126 -14.72592,3.53165 -4.09027,1.72719 -7.93483,3.63751 -10.71508,6.31953 -0.87678,0.96019 -1.56033,1.55597 -1.56416,1.91285 0.19293,-0.24139 0.0176,-0.55059 -0.34071,-1.49751 1.71463,2.34664 4.63492,4.01191 7.57633,4.32035 3.02289,0.40918 6.3797,-0.33132 9.63529,-1.62571 0,0 3e-5,-10e-6 3e-5,-10e-6 2.80605,-1.24157 5.35717,-2.65093 6.93593,-4.55383 0.45123,-0.71679 0.78743,-0.94183 0.57672,-0.71262 -0.0876,0.21356 -0.0389,0.59492 0.0959,1.20326 0.25224,0.61619 0.49808,1.01597 0.80889,1.23377 0.0327,-0.0372 0.0124,-0.0666 -0.0556,-0.0952 -0.24533,-0.10305 -1.11046,-0.19561 -2.34221,-0.60281 -1.91313,-0.41455 -3.96834,-0.62415 -6.11478,-0.76469 -2.13425,-0.13009 -4.23411,-0.16476 -6.2878,-0.0552 0,0 -3e-5,1e-5 -3e-5,1e-5 -0.82299,0.0459 -1.58262,0.10323 -2.27314,0.20564 0,0 -3e-5,1e-5 -3e-5,1e-5 -0.55537,0.10856 -0.84801,0.12691 -0.83842,0.15759 0,0 0,1e-5 0,1e-5 0.21705,-0.47241 -0.48157,0.83087 -2.96232,2.45885 -0.31965,0.21453 -0.60926,0.40569 -0.86466,0.58086 -0.54327,0.37665 -1.04496,0.73639 -1.49315,1.09399 0,0 -3e-5,2e-5 -3e-5,2e-5 -0.49148,0.46039 -0.70839,0.55357 -0.50479,0.38975 0.24296,0.34022 0.44478,-0.6556 0.7492,-2.98891 -1.57895,-3.25846 -2.79179,-4.65265 -3.81142,-4.16578 0.16404,0.0706 0.64258,0.005 1.39573,-0.0353 0,0 3e-5,-1e-5 3e-5,-1e-5 0.92109,-0.0902 1.90263,-0.28552 2.94084,-0.53119 0,0 3e-5,-10e-6 3e-5,-10e-6 2.44874,-0.59235 4.82873,-1.43546 7.07831,-2.51224 2.08047,-1.08272 3.85351,-1.99815 4.79038,-3.17174 0.27658,-0.41778 0.46482,-0.55326 0.33771,-0.40917 -0.0556,0.36747 -0.0393,0.58359 0.0881,0.86178 0.85586,1.25662 1.56978,1.93717 2.22106,2.03652 0.61683,0.16254 0.89543,0.24301 0.8641,0.18742 0,0 -1e-5,-1e-5 -1e-5,-1e-5 -0.10314,-0.0483 -0.52674,0.0901 -1.25986,0.24151 0,0 -3e-5,0 -3e-5,0 -1.93646,0.49456 -3.91099,1.35378 -5.93449,2.35718 0,0 -3e-5,10e-6 -3e-5,10e-6 -1.98587,1.04802 -3.71552,1.974 -4.87714,3.10627 0,0 -2e-5,2e-5 -2e-5,2e-5 -0.38273,0.52945 -0.48772,0.43246 -0.18432,0.01 0.17592,-0.28502 0.20673,-0.84794 0.14437,-1.72033 -0.22243,-0.91407 -0.53509,-1.55227 -0.98724,-1.94725 -1.3296,-0.72631 -1.74668,-1.09032 -1.67883,-0.80596 0,0 10e-6,0 10e-6,0 0.22988,0.0211 0.67437,-0.18545 1.30746,-0.45501 0,0 2e-5,-1e-5 2e-5,-1e-5 0.5994,-0.3197 1.09112,-0.61471 1.39304,-0.92451 0.0936,-0.67264 0.16175,-0.10262 -0.39747,1.66882 0.74935,2.50606 1.33459,3.67833 2.07163,3.55894 0,0 2e-5,1e-5 2e-5,1e-5 0.35994,0.0952 0.30672,0.15234 -0.11578,0.0353 0,0 -2e-5,0 -2e-5,0 -1.02318,-0.15162 -2.25141,-0.074 -3.63002,0.0556 -0.6419,0.0726 -1.23721,0.15898 -1.77927,0.27951 -0.47085,0.12959 -0.71222,0.16074 -0.6838,0.17766 0.005,0.046 0.23755,-0.13235 0.72489,-0.50785 0.54416,-0.14469 0.98591,-1.19023 1.3965,-3.14341 -0.37922,-2.12066 -0.84704,-3.25794 -1.48207,-3.42785 -0.59055,-0.41476 -0.83855,-0.59828 -0.78454,-0.50915 -0.4791,0.25971 0.50733,-0.27683 2.65029,-0.298 0,0 2e-5,0 2e-5,0 0.7562,-0.0451 1.74962,-0.37932 2.99295,-0.763 0,0 3e-5,0 3e-5,0 0.92594,-0.33149 1.64998,-0.58004 2.07894,-0.88361 0.091,-0.53503 0.26892,-0.069 -0.35636,1.44922 2.73961,4.83089 3.83982,6.35299 3.37941,4.53169 0.32404,0.0754 0.45687,0.108 0.40173,0.0874 -0.0488,-0.0129 -0.20107,-0.0171 -0.45299,-0.0319 -0.68465,-0.0258 -1.35339,-0.009 -1.99651,0.0602 0,0 -2e-5,0 -2e-5,0 -0.73259,0.17565 -1.01271,0.10831 -0.68567,0.0555 0.27041,0.0343 0.70705,-0.52815 1.42778,-1.6551 0.39679,-1.59249 0.41381,-2.61637 -0.041,-3.17415 -0.3421,-0.46079 -0.47447,-0.66787 -0.58558,-0.64927 0,0 0,1e-5 0,1e-5 0.0161,0.0612 0.31436,0.0844 0.80532,0.17313 0,0 2e-5,1e-5 2e-5,1e-5 1.16839,0.14261 2.51913,-0.0596 3.92801,-0.41711 0.58962,-0.17419 1.0655,-0.32341 1.39249,-0.50135 0.31091,-0.35617 0.21712,-0.0875 -0.51604,0.66047 -0.42305,0.43268 -0.58595,1.33927 -0.54491,2.75007 0.44112,1.41662 0.8725,2.22322 1.3692,2.43224 0,0 8e-5,3e-5 8e-5,3e-5 0.84154,0.36846 0.8801,0.61297 0.0936,0.26318 0,0 -4e-5,0 -4e-5,0 -1.62684,-0.29706 -2.88719,-0.70491 -3.82333,-0.9702 0,0 -2e-5,-1e-5 -2e-5,-1e-5 -1.69726,-0.45521 -3.31957,-0.8693 -4.89423,-1.16365 -1.59643,-0.26613 -2.92109,-0.50364 -3.95915,-0.39118 0,0 -2e-5,0 -2e-5,0 -0.38229,0.0705 -0.53354,0.0452 -0.38312,0.0281 0,0 10e-6,0 10e-6,0 0.27213,-0.0507 0.55435,-0.39607 0.99844,-1.04453 0,0 3e-5,-4e-5 3e-5,-4e-5 -0.0277,0.54534 -0.14257,0.2297 -0.006,-0.98334 -0.50869,-1.774 -1.40427,-2.7961 -2.85639,-3.20428 -0.85711,-0.0361 -1.08379,-0.12569 -0.73577,-0.0796 0,0 10e-6,0 10e-6,0 0.28599,-0.0566 0.67809,-0.22136 1.18252,-0.43417 0,0 2e-5,-1e-5 2e-5,-1e-5 1.21349,-0.53614 2.40086,-1.24686 3.55645,-2.06341 0,0 2e-5,-1e-5 2e-5,-1e-5 1.04684,-0.84227 1.83408,-1.33035 2.00351,-1.72693 1.94809,-1.99294 3.18926,-2.68339 3.35729,-2.47375 0.058,-0.2462 -0.36343,0.20887 -1.3735,1.284 -0.67317,2.13639 -0.80588,3.31651 -0.25629,3.66716 0.64672,0.8507 1.01672,1.26429 1.33057,1.23847 0,0 1e-5,0 1e-5,0 0.11396,-0.0181 -0.087,0.009 -0.54689,-0.0377 -0.69031,-0.031 -1.94666,0.20349 -3.76605,0.21517 -1.78493,-0.13225 -2.67342,-0.41282 -2.72423,-0.47069 -0.28298,0.0611 0.0615,-0.004 1.05292,-0.079 1.86986,-0.75471 2.86218,-1.99752 3.06532,-3.84874 -0.007,-1.03024 -0.40607,-1.9476 -1.20501,-2.79506 -0.82161,-0.61387 -1.3179,-0.91134 -1.53214,-0.86199 -0.44628,-0.0163 -0.43297,-0.0945 0.0355,-0.0701 0,0 1e-5,0 1e-5,0 1.14935,-0.10004 2.46811,-0.49426 3.95096,-0.94242 1.51696,-0.48371 2.94676,-1.00263 4.2574,-1.62434 0.48554,-0.24287 0.82966,-0.39771 0.99483,-0.52447 0.0603,-0.068 -0.0236,0.0272 -0.27389,0.26561 -0.27346,-0.13179 -0.56429,0.72859 -0.95336,2.57587 0.0152,1.13023 0.47884,2.11186 1.40057,2.9836 0.91946,0.59027 1.45671,0.86134 1.64836,0.78156 0.46292,-0.005 0.48976,0.0611 0.0725,0.0597 -0.99788,0.13862 -2.14926,0.52682 -3.46155,0.96154 0,0 -2e-5,1e-5 -2e-5,1e-5 -1.39033,0.47834 -2.74247,1.00438 -4.04806,1.58935 0,0 -3e-5,1e-5 -3e-5,1e-5 -0.50864,0.22996 -0.96363,0.44043 -1.35544,0.6534 -0.38313,0.28 -0.39237,0.20194 0.0269,-0.11252 1.05533,-0.98961 1.25781,-2.47682 0.66151,-4.54112 -0.86506,-1.1008 -1.25451,-1.56566 -1.26245,-1.34766 -0.0634,0.0332 0.28529,0.0735 0.94847,0.28411 1.8295,0.4644 3.80712,0.70326 5.85006,0.86321 1.04312,0.0757 2.04486,0.11858 3.00627,0.0973 0.81416,-0.0341 1.45151,-0.0494 1.89039,-0.16471 0.15441,-0.0552 0.15069,-0.0279 -0.0286,0.0426 -0.17214,-0.0329 -0.52162,0.36048 -1.12396,1.14693 0,0 -6e-5,1.3e-4 -6e-5,1.3e-4 -0.46701,1.07306 -0.56086,1.9454 -0.26192,2.68702 0.3347,0.65614 0.45748,0.93463 0.46315,0.81627 1.44133,0.67926 1.85287,1.04437 1.62739,0.74726 -0.28818,0.0641 -1.20441,0.30867 -2.78009,0.38399 -2.53083,-0.0329 -4.7521,-0.33779 -6.70622,-0.46956 -2.23614,-0.0545 -3.95236,-0.30431 -5.0078,0.14505 0,0 -1e-5,0 -1e-5,0 -0.70916,0.0865 -1.4827,1.01588 -2.1091,2.03931 -0.52883,1.15065 -0.81853,2.39963 -0.51683,3.25593 0.50891,1.73513 1.55709,3.34458 2.89409,3.92089 1.45925,0.85804 3.60293,0.93574 5.831,0.83131 2.51745,-0.18537 5.06944,-0.85556 7.55908,-1.72054 2.24817,-0.79672 4.36427,-1.72824 6.30158,-2.85416 1.42915,-0.83507 2.92173,-1.56479 4.47185,-2.16384 -10e-6,0 2e-4,-4e-5 2e-4,-4e-5 1.88727,-0.30202 2.75129,-0.26057 2.57453,-0.0572 0,0 10e-6,-7e-5 10e-6,-7e-5 0.0799,-0.57697 -0.89042,-0.093 -3.05728,1.2741 0,0 -2.7e-4,1.7e-4 -2.7e-4,1.7e-4 0.81885,-1.12967 1.31556,-2.67149 1.68857,-4.29921 0.14968,-0.85573 0.26029,-1.56199 0.16335,-2.08686 0,0 0,0 0,0 -0.15046,-0.37956 -0.0715,-0.49714 -0.004,-0.33282 -2.50884,-1.9474 -5.33022,-3.30988 -8.2066,-3.92956 -3.06525,-0.69638 -6.5404,-0.72229 -9.85301,-0.79973 -2.17272,0.0884 -3.14395,-0.63387 -2.81657,-0.3532 -1.30637,0.48875 -2.61392,2.16464 -4.65419,3.62554 -1.45465,1.0426 -2.93922,1.93219 -4.35215,2.72721 -1.03267,0.60251 -1.8796,1.01826 -2.44413,1.53249 -0.45389,0.35673 -0.8018,0.92401 -1.01535,1.53662 -0.42171,1.16835 -0.47559,2.65266 -0.53764,4.16469 -0.0188,0.64859 -0.0951,1.18145 -0.15,1.5932 -0.0847,0.70639 -0.16521,1.36694 -0.22533,2.01768 -0.0597,0.67776 -0.10777,1.2848 -0.0934,1.84714 0.0937,0.45863 0.007,0.75807 -0.0454,0.46054 0.21424,0.45585 0.8609,0.91198 1.56642,1.48781 0.95706,0.72901 2.00874,1.39687 3.02181,2.01949 1.06423,0.65282 2.18311,1.2992 3.19871,1.88689 0.7851,0.45342 1.54003,0.8683 2.33262,1.39567 2.10826,1.41618 3.78962,2.60828 5.36049,3.99286 0.62814,0.54824 1.00785,1.04433 1.38093,1.33314 0.18579,0.23188 0.80081,0.32226 1.40216,0.52079 0,0 0,1e-5 0,1e-5 4.04327,1.19397 6.09757,2.02978 6.0244,2.32245 -0.0732,0.29267 -2.26051,0.0329 -6.40859,-0.59639 0,0 -1e-5,0 -1e-5,0 -0.48888,-0.0458 -1.28527,-0.10587 -2.15235,-0.59067 -0.66181,-0.42003 -1.17535,-0.92465 -1.63613,-1.24279 -1.60652,-1.14121 -3.23965,-2.07276 -5.46018,-3.31934 -0.69219,-0.38598 -1.40617,-0.70227 -2.2685,-1.11963 -1.06533,-0.51206 -2.24237,-1.08256 -3.40878,-1.69057 -1.09462,-0.56892 -2.28081,-1.21912 -3.44933,-1.9912 -0.79235,-0.48215 -1.77214,-1.18278 -2.62567,-2.32718 -0.57087,-1.03405 -0.71598,-1.86923 -0.66466,-2.32802 -0.0621,-0.80813 -0.0535,-1.57542 -0.0246,-2.30886 0.0265,-0.72978 0.0722,-1.43583 0.11874,-2.14566 0.0304,-0.50935 0.0752,-0.92403 0.0564,-1.21736 -0.0621,-1.58351 -0.0448,-3.45116 0.47258,-5.42494 0.36298,-1.31587 1.07777,-2.58444 2.15962,-3.63285 1.07786,-0.98847 2.16728,-1.65063 3.11203,-2.22248 1.30608,-0.81973 2.613,-1.67908 3.80163,-2.6189 1.27698,-1.02703 2.69154,-2.86542 5.28758,-4.32786 2.72278,-0.91282 4.55315,-0.44611 5.13681,-0.3532 3.29602,-0.0774 7.0939,-0.1571 10.9707,0.52687 3.79262,0.70671 7.475,2.30505 10.73669,4.68558 1.4964,1.27132 2.29343,2.79573 2.44325,4.23067 0,0 1e-5,3e-5 1e-5,3e-5 0.23193,1.54767 0.14683,2.97242 -0.0978,4.21117 -0.34512,2.18664 -1.09101,4.52032 -2.48569,6.71108 0,0 -2.9e-4,2e-4 -2.9e-4,2e-4 -2.34661,1.6368 -3.72427,2.0495 -3.95849,1.38858 0,0 -2e-5,-8e-5 -2e-5,-8e-5 -0.53464,0.10816 -0.055,-0.008 1.48749,-0.17174 0,0 1.7e-4,-2e-5 1.7e-4,-2e-5 -1.18021,0.49308 -2.34079,1.10599 -3.48156,1.81286 -2.32168,1.42946 -4.78894,2.60696 -7.34426,3.57939 -2.83518,1.09621 -5.94037,1.9725 -9.2571,2.33081 -2.94481,0.37769 -6.34129,0.15134 -9.67259,-1.35397 -3.42784,-1.77467 -5.82597,-4.85101 -6.81408,-8.35543 -0.80956,-3.03294 -0.42066,-6.09093 0.88349,-8.63405 1.13339,-2.52315 3.31685,-4.76558 6.43228,-5.95418 0,0 3e-5,-10e-6 3e-5,-10e-6 3.02435,-0.91105 5.7244,-0.84334 7.85746,-0.65652 2.34035,0.10533 4.43586,0.36496 6.27706,0.33201 -0.13274,0.0752 0.34473,-0.14714 1.48781,-0.319 1.05654,-0.50698 2.9476,-0.15241 5.31289,1.45025 0.42227,0.29837 0.94209,1.04082 1.46683,2.25609 0.42617,1.11596 0.32194,2.41647 -0.33997,3.83415 0,0 -9e-5,1.8e-4 -9e-5,1.8e-4 -0.82503,1.18014 -1.56371,1.84626 -2.13748,2.02303 -0.74478,0.36558 -1.36361,0.57692 -1.83125,0.66919 -1.31802,0.301 -2.49511,0.40473 -3.49699,0.42628 -1.29423,0.0479 -2.55565,0.0206 -3.78178,-0.0508 -2.32177,-0.12303 -4.75959,-0.39215 -7.24576,-0.96023 -0.69279,-0.11386 -1.72704,-0.40552 -3.0182,-1.04602 -0.32702,0.0429 -1.0528,-0.61899 -2.08837,-2.04167 -0.71441,-2.28763 -0.43169,-4.05779 0.80234,-5.22609 0.93367,-0.82768 1.57349,-1.23156 1.8277,-1.30396 0.66642,-0.37084 1.30251,-0.6836 1.89664,-0.95906 0,0 3e-5,-1e-5 3e-5,-1e-5 1.54828,-0.72298 3.12633,-1.36755 4.7246,-1.94377 0,0 3e-5,-1e-5 3e-5,-1e-5 1.39333,-0.51999 3.00494,-1.05078 4.86052,-1.39144 0.47633,-0.15037 1.40272,-0.22327 2.76126,-0.0776 0.45892,-0.0344 1.26896,0.31296 2.39657,1.07716 1.09,1.0124 1.64924,2.21222 1.66446,3.56187 -0.38907,2.0766 -0.83809,3.13495 -1.26602,3.1728 -0.50863,0.52235 -0.90227,0.85024 -1.15732,1.00178 -0.82249,0.56088 -1.55619,0.95376 -2.15859,1.23482 -1.76609,0.85997 -3.5493,1.54765 -5.31154,2.12664 -1.62532,0.55913 -3.49301,1.0973 -5.61792,1.37522 0,0 -4e-5,1e-5 -4e-5,1e-5 -0.58625,0.14489 -1.63746,0.16607 -3.1179,-0.10248 -0.53546,-0.0294 -1.3542,-0.44828 -2.41563,-1.29042 -1.00017,-1.03894 -1.51027,-2.23358 -1.51766,-3.54184 0.20317,-2.24029 1.46837,-3.84528 3.71777,-4.68758 1.50976,-0.19457 2.39798,-0.15154 2.63738,0.0142 1.19509,0.19118 1.51434,0.4064 1.00394,0.27495 0.69524,0.0117 1.94418,-0.23885 3.78427,-0.26467 0.84113,-0.0436 1.96226,0.0697 3.31534,0.46157 0,0 6e-5,2e-5 6e-5,2e-5 1.34863,0.31656 2.70091,1.37913 3.83641,3.2074 0.76883,0.78914 0.76129,2.51694 -0.17421,5.06824 -1.25977,1.46976 -2.13147,2.14103 -2.50005,2.08631 -0.86152,0.66328 -0.9055,0.34729 0.42506,-0.70044 -1.39772,1.95452 -2.91273,3.22707 -4.17065,4.05172 0,0 -3e-5,2e-5 -3e-5,2e-5 -1.54405,1.13597 -3.23797,2.16467 -5.08096,3.0171 0,0 -3e-5,2e-5 -3e-5,2e-5 -0.7451,0.35485 -1.63642,0.70372 -2.68444,0.98701 0,0 -4e-5,1e-5 -4e-5,1e-5 -0.57649,0.28163 -1.78013,0.39207 -3.56826,0.13848 -2.08791,-0.55666 -3.51575,-2.10919 -4.10415,-4.53233 -7.3e-4,-2.32655 0.40455,-3.74006 0.88126,-4.20034 0,0 5e-5,-9e-5 5e-5,-9e-5 0.92561,-1.61146 2.09013,-2.67719 3.34309,-3.1781 0,0 7e-5,-2e-5 7e-5,-2e-5 1.35182,-0.56893 2.53247,-0.82003 3.47188,-0.85377 0,0 4e-5,0 4e-5,0 2.39552,-0.15864 4.51987,0.10015 6.33593,0.45817 1.95058,0.35042 3.81131,0.79891 5.60389,1.26585 0,0 4e-5,1e-5 4e-5,1e-5 1.31967,0.33073 2.30028,0.66652 2.9855,0.75475 0,0 2e-5,1e-5 2e-5,1e-5 0.71826,-0.0856 2.21916,0.35403 4.25788,1.67833 0,0 1.3e-4,8e-5 1.3e-4,8e-5 0.78182,0.44096 1.46,1.55522 1.95881,3.33512 0.0947,1.74899 -0.18867,3.00124 -0.79582,3.72291 -1.31587,1.66352 -2.41887,2.49463 -3.07554,2.63539 -1.10904,0.56114 -2.16783,0.94781 -3.13794,1.21127 -2.23105,0.66378 -4.71416,0.98778 -7.33644,0.77537 0,0 -4e-5,0 -4e-5,0 -1.18614,-0.0684 -2.57224,-0.38883 -4.07396,-1.06988 0,0 -6e-5,-3e-5 -6e-5,-3e-5 -1.42372,-0.62336 -2.72943,-1.8293 -3.72669,-3.60046 -0.71178,-1.07175 -0.80333,-2.71602 -0.17682,-4.8358 0.95329,-1.66069 1.87976,-2.60238 2.66001,-2.85047 1.80747,-0.87373 3.26394,-1.19057 4.21861,-1.20344 0,0 4e-5,-1e-5 4e-5,-1e-5 1.1403,-0.1305 2.27275,-0.1724 3.38704,-0.13491 0.35959,0.007 0.81995,0.0343 1.37826,0.10248 0.11919,0.003 0.42685,0.0602 0.92025,0.1834 -0.3893,-1.8013 0.82417,-0.26911 3.56372,4.63556 -0.62525,3.72159 -2.26744,5.95752 -4.04298,6.60941 -1.49989,0.92323 -2.92529,1.51563 -4.17611,1.90973 0,0 -3e-5,2e-5 -3e-5,2e-5 -1.34627,0.47952 -2.99163,0.96762 -4.96033,1.22533 0,0 -4e-5,10e-6 -4e-5,10e-6 -1.17705,0.34713 -3.69444,0.68981 -7.29147,-0.298 -0.36245,-0.0775 -1.02782,-0.44909 -1.95742,-1.15807 -0.8272,-0.33678 -1.46723,-1.69883 -1.8407,-4.07408 0.41619,-2.2003 1.02316,-3.4612 1.75012,-3.7724 0.76776,-0.63093 1.34015,-0.99072 1.68894,-1.10528 1.08966,-0.47864 1.99339,-0.73946 2.66781,-0.86488 0.96368,-0.21474 1.89658,-0.3627 2.79104,-0.46398 1.77755,-0.22775 3.76167,-0.31222 5.90583,-0.0737 0,0 4e-5,0 4e-5,0 0.7243,0.0249 1.82018,0.27448 3.21917,0.8797 0,0 7e-5,3e-5 7e-5,3e-5 1.3878,0.20072 2.61513,1.931 3.36448,5.16304 -0.55925,3.23622 -1.62305,5.01849 -2.58927,5.36165 -1.20348,1.13336 -2.48183,1.99199 -3.75121,2.61157 0,0 -4e-5,2e-5 -4e-5,2e-5 -1.23432,0.66905 -2.78825,1.20934 -4.64243,1.45494 0,0 -6e-5,10e-6 -6e-5,10e-6 -1.5614,0.45943 -3.79666,-0.10361 -6.28793,-1.99148 -0.8381,-0.78095 -1.43847,-1.91318 -1.75053,-3.3661 -0.15379,-1.422 -0.0186,-2.55303 0.35508,-3.35942 0.88649,-1.93037 1.86844,-3.14087 2.66719,-3.72032 0,0 3e-5,-3e-5 3e-5,-3e-5 2.3323,-2.11456 4.8077,-3.57577 7.10216,-4.69847 0,0 3e-5,-2e-5 3e-5,-2e-5 2.37832,-1.22893 4.98983,-2.34294 7.85326,-3.12212 0,0 4e-5,-1e-5 4e-5,-1e-5 0.93738,-0.2919 2.22342,-0.54387 3.85218,-0.5816 0,0 7e-5,0 7e-5,0 0.53744,-0.0521 1.39431,0.0755 2.54409,0.4378 1.03603,0.24354 2.11342,1.17351 3.15312,2.7978 0.91552,1.8545 1.15036,3.92726 0.65811,6.00617 -0.60492,2.0169 -1.52796,3.54036 -2.54279,4.56653 -2.48886,2.65697 -5.29308,4.36042 -7.87144,5.51764 -2.88246,1.39067 -5.91406,2.47521 -9.03329,3.23454 0,0 -3e-5,1e-5 -3e-5,1e-5 -1.32749,0.32863 -2.74552,0.60234 -4.25176,0.76624 0,0 -4e-5,0 -4e-5,0 -1.06227,0.14925 -2.43149,0.18952 -4.07135,-0.0405 -1.31192,0.43815 -2.85841,-1.10874 -4.4671,-4.66204 0.2688,-2.68434 0.70152,-4.00079 1.15438,-3.94427 0.97145,-1.20176 1.78955,-1.91974 2.30981,-2.26413 0,0 3e-5,-1e-5 3e-5,-1e-5 0.69146,-0.54905 1.37148,-1.04275 2.02778,-1.49554 0.36207,-0.25179 0.69821,-0.47529 1.00365,-0.67748 0.28643,-0.21682 1.65002,-1.86229 4.99108,-3.50621 0,0 6e-5,-2e-5 6e-5,-2e-5 1.21153,-0.42002 2.19609,-0.61695 2.91267,-0.69262 0,0 4e-5,-1e-5 4e-5,-1e-5 1.11418,-0.15899 2.17506,-0.2471 3.17615,-0.29786 0,0 4e-5,0 4e-5,0 2.50713,-0.13216 4.9888,-0.0979 7.43209,0.0544 2.43799,0.14228 4.98009,0.4171 7.57789,0.96119 1.27779,0.12618 3.035,0.5851 5.02115,1.70534 0.55107,0.31081 1.11947,0.67238 1.69989,1.09161 0.99145,0.78501 1.78433,1.92479 2.30791,3.38371 0.40497,1.44761 0.4519,2.73936 0.19204,3.81693 -0.67156,2.54041 -1.77468,4.3133 -2.87704,5.36212 -3.11984,3.43676 -6.89667,5.71639 -10.61887,7.17893 0,0 -4e-5,1e-5 -4e-5,1e-5 -4.42611,1.88749 -9.44869,2.84955 -14.61666,2.30108 -5.72371,-0.70466 -10.90462,-3.69402 -14.37382,-8.25911 -1.73096,-2.7772 -1.99281,-5.63498 -0.98734,-8.00816 1.12586,-2.60609 2.64819,-4.43669 4.08261,-5.63103 4.22723,-3.85037 9.08536,-6.38261 13.77448,-8.21146 5.64401,-2.29426 11.67559,-3.81198 17.88482,-4.16289 5.76144,-0.44299 12.08877,0.55416 17.64869,4.07742 2.34928,1.9493 3.26665,4.467 2.68416,7.07398 -0.69395,2.17818 -1.65243,3.63704 -2.53737,4.44277 -1.05088,1.16485 -2.19264,2.15101 -3.37236,2.9733 -0.98644,0.73526 -2.25953,1.4699 -3.84967,2.05529 0,0 -3e-5,10e-6 -3e-5,10e-6 -2.18172,0.74206 -4.29599,1.23224 -6.27507,1.62722 0,0 -3e-5,0 -3e-5,0 -2.63361,0.53682 -5.2676,0.95223 -7.88708,1.26807 -5.01687,0.65718 -10.41234,1.0839 -16.03227,0.18161 -2.0065,-0.41608 -3.48501,-1.6838 -4.31339,-3.71058 -0.38622,-1.77719 -0.37389,-2.96345 -0.11144,-3.50856 0.45958,-1.90992 1.13101,-3.35942 1.73673,-4.40678 0.67992,-1.28837 1.41763,-2.51016 2.18883,-3.67106 0,0 2e-5,-2e-5 2e-5,-2e-5 0.29445,-0.44564 0.61304,-0.9093 0.96288,-1.38557 0.10261,-0.17581 0.42042,-0.58889 0.99401,-1.19878 5.97006,-5.80364 13.61237,-9.04442 21.17029,-10.21173 7.73012,-1.21144 15.35595,-0.78641 22.43839,0.17123 0,0 -1.9e-4,1e-5 -1.9e-4,1e-5 -1.40712,0.083 -1.68695,0.0187 -0.89485,-0.0317 0.62011,-1.59031 2.64203,-0.15846 5.75394,4.41738 -0.95006,3.11958 -1.88968,4.53206 -2.56223,4.28631 0,0 -4e-5,5e-5 -4e-5,5e-5 -0.33051,0.53723 0.01,-0.0245 1.20278,-1.55661 0,0 1.3e-4,-1.7e-4 1.3e-4,-1.7e-4 -0.55736,1.16823 -0.87575,3.34714 -2.07608,6.05801 -3.1208,6.56755 -8.00454,11.88082 -13.5197,15.77273 -5.90103,4.19181 -12.5294,6.9603 -19.25449,8.37668 -6.92183,1.48239 -14.03538,1.49868 -20.73273,-0.12927 -6.93764,-1.68991 -13.17981,-5.34119 -17.7933,-10.43139 0,0 -4e-5,-4e-5 -4e-5,-4e-5 -1.37214,-1.72936 -1.85275,-3.61468 -1.54262,-5.31976 0.30293,-1.69774 0.9037,-3.04459 1.57798,-4.04621 0.68991,-1.10996 1.47513,-2.10059 2.3122,-2.97779 0.58305,-0.64606 1.35425,-1.36795 2.37119,-2.06113 0,0 3e-5,-2e-5 3e-5,-2e-5 1.48862,-0.93465 2.88848,-1.47696 4.04673,-1.85716 1.86758,-0.6598 3.72329,-1.18419 5.52229,-1.63582 4.6951,-1.18404 9.35043,-1.99123 13.89923,-2.47516 4.56154,-0.50892 9.1294,-0.72081 13.72844,-0.0194 1.76577,0.24509 3.67182,0.7414 5.54381,1.72975 1.57975,0.77321 2.98483,2.23828 3.7798,4.30517 0.33677,1.50147 0.13826,2.7194 -0.45441,3.54361 -0.62093,0.93855 -1.26565,1.56001 -1.81834,1.93091 -1.52508,1.12799 -3.07846,1.86755 -4.46234,2.43872 -1.52074,0.64994 -3.03788,1.20051 -4.51071,1.68927 -0.90397,0.30059 -1.79729,0.57042 -2.62513,0.82828 -2.96021,0.89077 -5.85494,0.95392 -8.38511,0.80431 -2.68141,-0.11637 -4.89773,-0.33536 -6.98579,-0.0176 -4.7754,0.65727 -9.56595,2.49927 -13.56739,4.12116 0,0 -1e-5,0 -1e-5,0 -4.54562,1.85443 -9.53465,4.23909 -12.9624,5.84287 -5.67329,2.64665 -9.92075,5.1388 -12.88267,6.65189 -2.9652,1.51478 -4.58392,2.159 -4.72033,1.9271 z"
     id="path905"
     inkscape:path-effect="#path-effect907"
     inkscape:original-d="m 265.44465,274.39223 c 5.63366,-3.31392 11.09058,-6.94852 16.90097,-9.94175 7.12919,-3.67261 18.21027,-9.49718 26.84272,-10.93592 5.10377,-0.85063 9.788,0.71403 14.91262,-0.99418 1.33227,-0.44409 12.90972,-4.02037 11.9301,-6.95922 -2.92769,-8.78307 -36.14973,-1.74872 -41.75534,1.98835 -1.80376,1.20251 -6.35627,6.35168 -3.9767,8.94757 17.38026,18.96028 54.23835,9.57225 64.62136,-12.92427 0.87831,-1.903 1.16273,-4.03861 1.98835,-5.96505 0.18461,-0.43076 0.99417,-0.52552 0.99417,-0.99417 0,-0.3314 -0.66534,0.0411 -0.99417,0 -13.75888,-1.71986 -29.3679,-1.45152 -39.76699,8.94757 -0.85531,0.85531 -6.5771,9.50835 -3.9767,9.94175 7.68449,1.28074 22.15213,-1.00522 27.83689,-2.98253 3.12999,-1.08869 8.7224,-6.11517 5.96505,-7.9534 -15.96712,-10.64474 -51.42137,7.32685 -45.73204,14.91263 11.86636,15.8218 38.8006,-1.9652 32.80777,-6.95923 -3.54434,-2.95361 -19.24908,-3.3447 -22.86602,-1.98835 -1.55146,0.5818 -2.59803,2.06341 -3.9767,2.98253 -0.17055,0.1137 -5.68954,3.69122 -3.9767,3.9767 5.75559,0.95926 25.31568,-6.03662 21.87185,-12.92428 -1.37888,-2.75775 -21.33873,6.49817 -17.89515,9.94175 2.14869,2.14869 8.94757,-1.7891 8.94757,-3.9767 0,-2.69638 -15.2397,-0.72734 -10.93592,0.99418 1.53845,0.61538 3.32405,0.18298 4.97088,0 1.358,-0.15089 2.68045,-0.5621 3.9767,-0.99418 1.71223,-0.57074 4.97087,-1.82815 4.97087,-3.9767 0,-0.28079 -8.23727,-0.56773 -6.95922,1.98835 2.61715,5.23432 19.45082,-0.5692 10.93592,-1.98835 -2.44463,-0.40743 -14.99781,-4.80049 -16.90097,-0.99417 -2.85052,5.70104 8.61885,-0.50109 10.93592,-3.9767 0.63723,-0.95585 2.60963,-0.74579 1.98835,-1.98835 -0.98267,-1.96534 -5.18841,-0.99417 -6.95922,-0.99417 -0.99418,0 -2.98253,-0.99418 -2.98253,0 0,2.44504 13.91845,-2.59951 13.91845,-3.9767 0,-1.9453 -11.72243,2.77485 -12.92427,3.9767 -1.79451,1.7945 20.15569,4.24889 15.90679,0 -0.93731,-0.93732 -2.65113,0 -3.9767,0 -3.28493,0 -9.71801,-1.06876 -12.92427,0 -3.6691,1.22303 -6.0625,6.12106 -4.97087,9.94174 3.54412,12.40442 20.7926,6.21493 27.83689,1.98835 1.27083,-0.76249 2.60067,-1.43794 3.9767,-1.98835 0.30769,-0.12307 0.81035,0.27574 0.99417,0 1.45745,-2.18616 3.77684,-8.84892 0.99418,-10.93592 -6.4787,-4.85902 -12.15122,-4.97087 -19.8835,-4.97087 -1.32556,0 -2.79107,-0.59281 -3.97669,0 -1.82577,0.91288 -3.35179,2.76238 -4.97088,3.9767 -6.34984,4.76238 -8.94757,3.39569 -8.94757,11.93009 0,1.12054 -0.73399,5.85825 0,6.95923 1.55889,2.33834 9.01345,5.77616 10.93592,6.95922 11.66854,7.18064 1.81089,3.68379 14.91262,6.95922" />
  <path
     style="fill:#000000;stroke:none;stroke-width:1px;stroke-linecap:butt;stroke-linejoin:miter;stroke-opacity:1"
     d="m 268.42718,237.60776 c -0.24334,-0.97338 1.35533,-1.28279 3.31364,-2.76235 0.81387,-0.54487 6.57497,-4.84974 10.48536,-6.54357 0,0 0,0 0,0 2.14778,-0.86521 3.81577,-1.1922 5.57525,-1.72077 1.7224,-0.73545 2.96753,-0.7661 2.46294,-0.93804 -1.05623,1.78564 -1.10116,0.75133 0.91102,-2.07152 2.48998,-1.71831 4.53639,-2.19951 5.67067,-1.66835 1.18621,0.13708 1.67521,0.3253 1.40636,0.19988 1.07919,-0.0477 2.22328,-0.18262 3.61926,-0.30232 1.74691,-0.15665 3.60697,-0.31615 5.50136,-0.43317 1.7419,-0.11087 3.63182,-0.19558 5.62178,-0.14882 0.7459,0.0139 1.59709,0.0625 2.54449,0.18748 0,0 10e-6,1e-5 10e-6,1e-5 0.525,0.003 1.48771,0.23074 2.83667,0.80876 1.04696,0.53905 2.2224,0.96871 3.51713,1.35118 1.69256,0.49999 3.59776,0.91997 5.51271,1.37165 3.73814,0.81193 7.51139,1.65579 11.38613,3.28226 1.19009,0.56384 3.51117,0.99729 6.22593,2.34996 6.81416,3.75547 11.83156,8.55986 15.19738,12.67875 1.00635,1.21257 1.72139,2.2389 2.40422,3.02565 0.47145,0.25386 0.17678,0.29482 -0.51182,0.0248 -0.6386,-0.22766 -1.42379,0.1151 -2.39262,0.97281 -0.43472,0.94641 -0.58162,1.3583 -0.41554,1.32498 0.34965,-1.30691 -0.13264,-4.22458 -0.17812,-5.23656 -0.067,-1.49179 0.16951,-2.33254 0.63228,-2.46124 0.43693,-0.12151 1.09297,0.43026 1.94746,1.52087 0.70921,0.90518 2.23852,3.02504 2.75856,6.07019 0.17009,0.17728 0.0202,0.8205 -0.54337,1.93853 -1.05894,0.97764 -2.01316,1.35343 -2.80122,1.09734 -1.31958,-0.39421 -2.06018,-0.81464 -2.10486,-0.9918 -1.3188,-0.8934 -2.27394,-1.7384 -3.41971,-2.66084 -3.74781,-2.99952 -8.73734,-6.59384 -14.62786,-9.19309 -0.92512,-0.46728 -2.8841,-0.58652 -5.70417,-1.62674 -2.86481,-1.06847 -6.03383,-1.57927 -9.92554,-2.39411 -1.97466,-0.3774 -4.13009,-0.84094 -6.35109,-1.53276 -1.68505,-0.52488 -3.37977,-1.17222 -5.06274,-1.99814 0.51755,0.16434 0.58064,0.24868 0.19345,0.11701 0,0 -10e-6,0 -10e-6,0 -0.39183,-0.0691 -0.89237,-0.1016 -1.48379,-0.13721 -1.54212,-0.0839 -3.19307,-0.0622 -4.8659,-0.0359 -1.73902,0.0298 -3.62616,0.0886 -5.3543,0.13152 -1.2874,0.0337 -2.64425,0.0837 -4.15616,0.0365 -1.72395,-0.125 -2.64571,-0.41079 -2.86153,-0.50311 -0.16641,0.31122 0.40166,-0.15546 1.98516,-0.96536 1.00829,-1.84802 0.95982,-0.8174 -1.07732,1.90518 -2.93202,2.26114 -5.41979,2.66753 -6.78332,2.62732 -2.15545,0.3529 -3.80836,0.39942 -5.06199,0.67891 0,0 0,0 0,0 -4.23154,0.86368 -8.36218,2.91287 -11.38648,3.39819 -2.98457,0.5033 -4.54241,-0.3846 -4.63976,-0.77401 z"
     id="path913"
     inkscape:path-effect="#path-effect915"
     inkscape:original-d="m 268.42718,237.60776 c 1.32556,-0.33139 2.69733,-0.51441 3.9767,-0.99417 3.78557,-1.41959 7.16263,-3.71311 10.93592,-4.97088 2.55665,-0.85221 8.31242,-1.3532 9.94175,-2.98252 0.49708,-0.49709 0.49708,-1.49126 0.99417,-1.98835 0.93732,-0.93732 2.65113,0 3.9767,0 3.3906,0 15.48579,-1.20468 17.89514,0 6.16389,3.08194 14.13512,3.26802 20.87767,5.96505 1.946,0.7784 4.09042,1.05103 5.96505,1.98835 5.34904,2.67451 10.65602,6.67932 14.91262,10.93592 2.43885,2.43884 4.00083,4.14897 3.9767,2.98252 -0.0547,-2.64428 -1.41729,-5.09628 -2.12593,-7.64442" />
</svg>
